<svg width="33" height="32" viewBox="0 0 33 32" fill="none" xmlns="http://www.w3.org/2000/svg">
<circle cx="16.5001" cy="15.7618" r="15.7618" fill="#3A3A3A"/>
<g clip-path="url(#clip0_20_76)">
<path d="M20.1 7.69055C20.9246 7.72846 21.4945 7.84964 22.0212 8.05407C22.5206 8.24078 22.9727 8.53524 23.3453 8.91651C23.7266 9.28916 24.021 9.74125 24.2078 10.2406C24.4122 10.768 24.5334 11.3373 24.5713 12.1618C24.618 13.184 24.6234 13.5441 24.6234 15.7618C24.6234 17.9795 24.618 18.3396 24.5713 19.3618C24.5334 20.1864 24.4122 20.7564 24.2078 21.2837C24.021 21.7828 23.7265 22.2347 23.3453 22.6071C22.9727 22.9884 22.5206 23.2829 22.0212 23.4696C21.4939 23.674 20.9246 23.7952 20.1 23.8331C19.0778 23.8798 18.7184 23.8852 16.5 23.8852C14.2816 23.8852 13.9215 23.8798 12.9 23.8331C12.0755 23.7952 11.5055 23.674 10.9781 23.4696C10.479 23.2828 10.0271 22.9883 9.6547 22.6071C9.27343 22.2345 8.97897 21.7824 8.79226 21.283C8.58783 20.7557 8.46665 20.1864 8.42874 19.3618C8.38203 18.341 8.37662 17.9809 8.37662 15.7618C8.37662 13.5435 8.38203 13.1826 8.42874 12.1618C8.46665 11.3373 8.58783 10.7673 8.79226 10.2406C8.97897 9.74125 9.27343 9.28916 9.6547 8.91651C10.0272 8.53533 10.479 8.24087 10.9781 8.05407C11.5062 7.84964 12.0755 7.72846 12.9 7.69055C13.9208 7.64384 14.281 7.63843 16.5 7.63843C18.7184 7.63843 19.0792 7.64384 20.1 7.69055ZM16.5 9.44385C14.3067 9.44385 13.9709 9.44859 12.9819 9.49395C12.3544 9.52238 11.978 9.60226 11.6321 9.73697C11.3376 9.85205 11.1501 9.9739 10.9307 10.1926C10.7114 10.4119 10.5896 10.5994 10.4752 10.8939C10.3411 11.2391 10.2606 11.6162 10.2321 12.2437C10.1868 13.2327 10.182 13.5685 10.182 15.7618C10.182 17.9551 10.1868 18.2909 10.2321 19.2799C10.2606 19.9075 10.3404 20.2838 10.4752 20.6291C10.5902 20.9242 10.7121 21.1118 10.9307 21.3311C11.1501 21.5504 11.3376 21.6723 11.6321 21.7867C11.9773 21.9207 12.3544 22.0013 12.9819 22.0297C13.9716 22.0751 14.3074 22.0798 16.5 22.0798C18.6933 22.0798 19.0284 22.0751 20.0181 22.0297C20.6457 22.0013 21.022 21.9214 21.368 21.7867C21.6624 21.6716 21.8499 21.5497 22.0693 21.3311C22.2886 21.1118 22.4105 20.9242 22.5249 20.6298C22.6589 20.2845 22.7395 19.9075 22.7679 19.2799C22.8132 18.2902 22.818 17.9545 22.818 15.7618C22.818 13.5692 22.8132 13.2334 22.7679 12.2437C22.7395 11.6162 22.6596 11.2398 22.5249 10.8946C22.4291 10.6286 22.2732 10.3883 22.0693 10.1926C21.8735 9.9886 21.6333 9.83268 21.3673 9.73697C21.022 9.60294 20.645 9.52238 20.0174 9.49395C19.0284 9.44859 18.6927 9.44385 16.4993 9.44385H16.5ZM16.5 19.9738C15.3829 19.9738 14.3116 19.53 13.5217 18.7401C12.7318 17.9502 12.288 16.8789 12.288 15.7618C12.288 14.6447 12.7318 13.5734 13.5217 12.7835C14.3116 11.9936 15.3829 11.5498 16.5 11.5498C17.6171 11.5498 18.6884 11.9936 19.4783 12.7835C20.2682 13.5734 20.712 14.6447 20.712 15.7618C20.712 16.8789 20.2682 17.9502 19.4783 18.7401C18.6884 19.53 17.6171 19.9738 16.5 19.9738ZM16.5 18.1691C17.1384 18.1691 17.7507 17.9154 18.2022 17.464C18.6536 17.0125 18.9072 16.4003 18.9072 15.7618C18.9072 15.1234 18.6536 14.5111 18.2022 14.0597C17.7507 13.6082 17.1384 13.3546 16.5 13.3546C15.8616 13.3546 15.2493 13.6082 14.7978 14.0597C14.3464 14.5111 14.0928 15.1234 14.0928 15.7618C14.0928 16.4003 14.3464 17.0125 14.7978 17.464C15.2493 17.9154 15.8616 18.1691 16.5 18.1691ZM20.712 12.4522C20.4726 12.4522 20.243 12.3571 20.0737 12.1878C19.9044 12.0185 19.8093 11.7889 19.8093 11.5495C19.8093 11.3101 19.9044 11.0805 20.0737 10.9112C20.243 10.7419 20.4726 10.6468 20.712 10.6468C20.9514 10.6468 21.181 10.7419 21.3503 10.9112C21.5196 11.0805 21.6147 11.3101 21.6147 11.5495C21.6147 11.7889 21.5196 12.0185 21.3503 12.1878C21.181 12.3571 20.9514 12.4522 20.712 12.4522Z" fill="white"/>
</g>
<defs>
<clipPath id="clip0_20_76">
<rect width="16.2468" height="16.2468" fill="white" transform="translate(8.37662 7.63843)"/>
</clipPath>
</defs>
</svg>
