<svg width="32" height="32" viewBox="0 0 32 32" fill="none" xmlns="http://www.w3.org/2000/svg">
<circle cx="15.7618" cy="15.7618" r="15.7618" fill="#3A3A3A"/>
<path d="M22.993 12.1391C23.0009 12.298 23.0039 12.4589 23.0039 12.6179C23.0039 17.514 19.2509 23.1577 12.3884 23.1577C10.2801 23.1577 8.32009 22.5445 6.66846 21.4927C7.64537 21.6099 8.636 21.5349 9.5837 21.272C10.5314 21.009 11.4176 20.5632 12.1917 19.9601C11.4132 19.9455 10.6588 19.6897 10.034 19.2286C9.4091 18.7676 8.945 18.1242 8.70655 17.3884C9.26605 17.4923 9.84188 17.4705 10.3918 17.3246C9.54731 17.1546 8.788 16.7 8.24254 16.0379C7.69709 15.3757 7.39903 14.5467 7.39889 13.6913V13.6452C7.91701 13.9313 8.49648 14.0904 9.08907 14.1093C8.29822 13.5859 7.73839 12.7827 7.52384 11.8635C7.3093 10.9443 7.45622 9.97847 7.93461 9.16316C8.87141 10.3077 10.0403 11.2438 11.3652 11.9106C12.6902 12.5775 14.1417 12.9602 15.6254 13.0339C15.5612 12.7568 15.5291 12.4734 15.5295 12.1891C15.5295 11.7029 15.626 11.2214 15.8135 10.7722C16.001 10.323 16.2758 9.91484 16.6222 9.57107C16.9686 9.22729 17.3798 8.95463 17.8324 8.76864C18.2849 8.58266 18.77 8.487 19.2598 8.48713C19.7703 8.4863 20.2755 8.5896 20.744 8.79062C21.2126 8.99164 21.6346 9.28609 21.9838 9.65571C22.8192 9.49156 23.6203 9.18764 24.353 8.75695C24.0744 9.6147 23.4913 10.3428 22.7123 10.8057C23.4519 10.7186 24.1742 10.5222 24.8552 10.2228C24.3549 10.967 23.7242 11.616 22.993 12.1391Z" fill="white"/>
</svg>
