<svg width="72" height="93" viewBox="0 0 72 93" fill="none" xmlns="http://www.w3.org/2000/svg">
<path d="M40.18 45.8049L32.2328 56.0123L28.0345 50.6205C27.958 50.5221 27.8604 50.4425 27.7489 50.3878C27.6374 50.3331 27.515 50.3046 27.3909 50.3046C27.2669 50.3046 27.1445 50.3331 27.033 50.3878C26.9215 50.4425 26.8238 50.5221 26.7474 50.6205L16.5529 63.709C16.4586 63.8303 16.4001 63.9759 16.3841 64.1292C16.368 64.2824 16.3951 64.4371 16.4623 64.5756C16.5294 64.7141 16.6339 64.8307 16.7637 64.9122C16.8935 64.9937 17.0435 65.0367 17.1965 65.0364H54.777C55.4614 65.0364 55.8394 64.2441 55.4206 63.709L41.4773 45.8049C41.3998 45.7064 41.3012 45.6268 41.1889 45.572C41.0766 45.5173 40.9534 45.4889 40.8286 45.4889C40.7038 45.4889 40.5807 45.5173 40.4684 45.572C40.356 45.6268 40.2574 45.7064 40.18 45.8049ZM20.455 38.9005C20.455 39.9921 20.8855 41.039 21.6518 41.8109C22.418 42.5828 23.4573 43.0164 24.541 43.0164C25.6247 43.0164 26.6639 42.5828 27.4302 41.8109C28.1965 41.039 28.6269 39.9921 28.6269 38.9005C28.6269 37.8089 28.1965 36.762 27.4302 35.9901C26.6639 35.2183 25.6247 34.7846 24.541 34.7846C23.4573 34.7846 22.418 35.2183 21.6518 35.9901C20.8855 36.762 20.455 37.8089 20.455 38.9005ZM70.9779 23.1161L48.9954 0.972605C48.3825 0.355222 47.5551 0.00537109 46.6869 0.00537109H3.29403C1.486 0.00537109 0.0252686 1.4768 0.0252686 3.29808V88.9085C0.0252686 90.7298 1.486 92.2012 3.29403 92.2012H68.6693C70.4773 92.2012 71.938 90.7298 71.938 88.9085V25.4518C71.938 24.5772 71.5907 23.7335 70.9779 23.1161ZM64.3995 26.9644H45.1751V7.59918L64.3995 26.9644ZM64.5833 84.7926H7.37998V7.41397H38.2289V29.6398C38.2289 30.7859 38.6809 31.8852 39.4855 32.6956C40.2901 33.5061 41.3813 33.9614 42.5192 33.9614H64.5833V84.7926Z" fill="#D9D9D9" fill-opacity="0.15"/>
</svg>
