<svg width="185" height="236" viewBox="0 0 185 236" fill="none" xmlns="http://www.w3.org/2000/svg">
<path d="M103.3 117.236L82.8558 143.365L72.0554 129.563C71.8588 129.311 71.6075 129.107 71.3206 128.967C71.0338 128.827 70.7189 128.754 70.3999 128.754C70.0808 128.754 69.7659 128.827 69.4791 128.967C69.1922 129.107 68.941 129.311 68.7443 129.563L42.5185 163.067C42.2758 163.377 42.1253 163.75 42.084 164.142C42.0428 164.534 42.1125 164.93 42.2852 165.285C42.4579 165.639 42.7266 165.938 43.0606 166.146C43.3946 166.355 43.7805 166.465 44.174 166.464H140.852C142.613 166.464 143.585 164.436 142.508 163.067L106.638 117.236C106.438 116.984 106.185 116.78 105.896 116.64C105.607 116.5 105.29 116.427 104.969 116.427C104.648 116.427 104.331 116.5 104.042 116.64C103.753 116.78 103.5 116.984 103.3 117.236ZM52.5568 99.5625C52.5568 102.357 53.6643 105.037 55.6355 107.012C57.6068 108.988 60.2804 110.098 63.0682 110.098C65.856 110.098 68.5296 108.988 70.5008 107.012C72.4721 105.037 73.5795 102.357 73.5795 99.5625C73.5795 96.7683 72.4721 94.0885 70.5008 92.1126C68.5296 90.1368 65.856 89.0268 63.0682 89.0268C60.2804 89.0268 57.6068 90.1368 55.6355 92.1126C53.6643 94.0885 52.5568 96.7683 52.5568 99.5625ZM182.53 59.158L125.979 2.47589C124.402 0.895536 122.273 0 120.04 0H8.40909C3.75781 0 0 3.76652 0 8.42857V227.571C0 232.233 3.75781 236 8.40909 236H176.591C181.242 236 185 232.233 185 227.571V65.1371C185 62.8982 184.107 60.7384 182.53 59.158ZM165.607 69.0089H116.151V19.4384L165.607 69.0089ZM166.08 217.036H18.9205V18.9643H98.2812V75.8571C98.2812 78.7911 99.4441 81.6049 101.514 83.6795C103.584 85.7541 106.391 86.9196 109.318 86.9196H166.08V217.036Z" fill="#D9D9D9"/>
</svg>
