<svg width="99" height="99" viewBox="0 0 99 99" fill="none" xmlns="http://www.w3.org/2000/svg">
<path fill-rule="evenodd" clip-rule="evenodd" d="M67.4892 36.0081C67.4892 40.7791 65.5939 45.3548 62.2203 48.7284C58.8466 52.102 54.271 53.9973 49.5 53.9973C44.729 53.9973 40.1533 52.102 36.7797 48.7284C33.4061 45.3548 31.5108 40.7791 31.5108 36.0081C31.5108 31.2371 33.4061 26.6615 36.7797 23.2878C40.1533 19.9142 44.729 18.0189 49.5 18.0189C54.271 18.0189 58.8466 19.9142 62.2203 23.2878C65.5939 26.6615 67.4892 31.2371 67.4892 36.0081ZM58.4946 36.0081C58.4946 38.3936 57.5469 40.6814 55.8601 42.3683C54.1733 44.0551 51.8855 45.0027 49.5 45.0027C47.1145 45.0027 44.8267 44.0551 43.1399 42.3683C41.453 40.6814 40.5054 38.3936 40.5054 36.0081C40.5054 33.6226 41.453 31.3348 43.1399 29.648C44.8267 27.9612 47.1145 27.0135 49.5 27.0135C51.8855 27.0135 54.1733 27.9612 55.8601 29.648C57.5469 31.3348 58.4946 33.6226 58.4946 36.0081Z" fill="#4B4B4B"/>
<path fill-rule="evenodd" clip-rule="evenodd" d="M49.5 0.0297241C22.1789 0.0297241 0.0297241 22.1789 0.0297241 49.5C0.0297241 76.8211 22.1789 98.9703 49.5 98.9703C76.8211 98.9703 98.9703 76.8211 98.9703 49.5C98.9703 22.1789 76.8211 0.0297241 49.5 0.0297241ZM9.02432 49.5C9.02432 58.8994 12.2309 67.5522 17.6052 74.424C21.3794 69.4676 26.2485 65.4508 31.8321 62.6875C37.4156 59.9242 43.5624 58.4892 49.7923 58.4946C55.9416 58.4888 62.0111 59.8866 67.5384 62.5817C73.0656 65.2767 77.9048 69.1978 81.6872 74.0463C85.5838 68.9355 88.2075 62.9704 89.3411 56.6444C90.4747 50.3183 90.0856 43.8133 88.206 37.6675C86.3264 31.5218 83.0104 25.9119 78.5322 21.3021C74.0541 16.6923 68.5427 13.2152 62.4539 11.1583C56.3652 9.10149 49.8742 8.52409 43.518 9.47393C37.1618 10.4238 31.1231 12.8735 25.9016 16.6205C20.6802 20.3675 16.426 25.304 13.4912 31.0215C10.5563 36.739 9.02513 43.0732 9.02432 49.5ZM49.5 89.9757C40.2084 89.9896 31.1972 86.7932 23.9913 80.9271C26.8918 76.7749 30.7523 73.3848 35.2444 71.0451C39.7366 68.7055 44.7274 67.4856 49.7923 67.4892C54.794 67.4852 59.7246 68.6746 64.1744 70.9585C68.6242 73.2425 72.4649 76.5551 75.3775 80.6213C68.1157 86.6778 58.956 89.989 49.5 89.9757Z" fill="#4B4B4B"/>
</svg>
