<svg width="51" height="51" viewBox="0 0 51 51" fill="none" xmlns="http://www.w3.org/2000/svg">
<path d="M18.1875 0.745605C17.1432 0.745605 16.1417 1.16045 15.4033 1.89887C14.6648 2.6373 14.25 3.63882 14.25 4.68311V14.2501H4.6875C3.64321 14.2501 2.64169 14.6649 1.90327 15.4034C1.16484 16.1418 0.75 17.1433 0.75 18.1876V32.8126C0.75 34.9861 2.514 36.7501 4.6875 36.7501H14.25V46.3149C14.25 48.4906 16.014 50.2524 18.1875 50.2524H32.8125C33.8568 50.2524 34.8583 49.8375 35.5967 49.0991C36.3352 48.3607 36.75 47.3591 36.75 46.3149V36.7501H46.3125C47.3568 36.7501 48.3583 36.3353 49.0967 35.5968C49.8352 34.8584 50.25 33.8569 50.25 32.8126V18.1876C50.25 17.1433 49.8352 16.1418 49.0967 15.4034C48.3583 14.6649 47.3568 14.2501 46.3125 14.2501H36.75V4.68536C36.75 3.64107 36.3352 2.63955 35.5967 1.90112C34.8583 1.1627 33.8568 0.747856 32.8125 0.747856H18.1875V0.745605Z" fill="#DC0639"/>
</svg>
