<svg width="47" height="48" viewBox="0 0 47 48" fill="none" xmlns="http://www.w3.org/2000/svg">
<path d="M46.8413 24.5333C46.8413 22.56 46.6819 21.12 46.3368 19.6267H23.8986V28.5333H37.0694C36.8039 30.7467 35.37 34.08 32.1835 36.3199L32.1388 36.6181L39.2333 42.1374L39.7248 42.1867C44.239 38 46.8413 31.8399 46.8413 24.5333Z" fill="#4285F4"/>
<path d="M23.8986 48C30.3512 48 35.7682 45.8666 39.7248 42.1867L32.1835 36.3199C30.1654 37.7332 27.4568 38.7199 23.8986 38.7199C17.5788 38.7199 12.2149 34.5333 10.3029 28.7467L10.0226 28.7706L2.6456 34.5039L2.54913 34.7732C6.47909 42.6132 14.5515 48 23.8986 48Z" fill="#34A853"/>
<path d="M10.3029 28.7467C9.79835 27.2534 9.50637 25.6533 9.50637 24C9.50637 22.3466 9.79836 20.7466 10.2763 19.2533L10.263 18.9353L2.79352 13.1098L2.54913 13.2266C0.929402 16.4799 0 20.1333 0 24C0 27.8667 0.929402 31.5199 2.54913 34.7732L10.3029 28.7467Z" fill="#FBBC05"/>
<path d="M23.8987 9.27994C28.3862 9.27994 31.4133 11.2266 33.1394 12.8534L39.8841 6.24C35.7418 2.37334 30.3512 0 23.8987 0C14.5515 0 6.47909 5.38663 2.54913 13.2266L10.2763 19.2533C12.2149 13.4667 17.5788 9.27994 23.8987 9.27994Z" fill="#EB4335"/>
</svg>
