<svg width="25" height="24" viewBox="0 0 25 24" fill="none" xmlns="http://www.w3.org/2000/svg">
<path d="M12.468 8.4C11.5132 8.4 10.5975 8.77928 9.9224 9.45442C9.24727 10.1295 8.86799 11.0452 8.86799 12C8.86799 12.9548 9.24727 13.8705 9.9224 14.5456C10.5975 15.2207 11.5132 15.6 12.468 15.6C13.4228 15.6 14.3384 15.2207 15.0136 14.5456C15.6887 13.8705 16.068 12.9548 16.068 12C16.068 11.0452 15.6887 10.1295 15.0136 9.45442C14.3384 8.77928 13.4228 8.4 12.468 8.4ZM12.468 6C14.0593 6 15.5854 6.63214 16.7106 7.75736C17.8358 8.88258 18.468 10.4087 18.468 12C18.468 13.5913 17.8358 15.1174 16.7106 16.2426C15.5854 17.3679 14.0593 18 12.468 18C10.8767 18 9.35056 17.3679 8.22535 16.2426C7.10013 15.1174 6.46799 13.5913 6.46799 12C6.46799 10.4087 7.10013 8.88258 8.22535 7.75736C9.35056 6.63214 10.8767 6 12.468 6ZM20.268 5.7C20.268 6.09783 20.11 6.47936 19.8286 6.76066C19.5473 7.04197 19.1658 7.2 18.768 7.2C18.3702 7.2 17.9886 7.04197 17.7073 6.76066C17.426 6.47936 17.268 6.09783 17.268 5.7C17.268 5.30218 17.426 4.92064 17.7073 4.63934C17.9886 4.35804 18.3702 4.2 18.768 4.2C19.1658 4.2 19.5473 4.35804 19.8286 4.63934C20.11 4.92064 20.268 5.30218 20.268 5.7ZM12.468 2.4C9.49919 2.4 9.01439 2.4084 7.63319 2.4696C6.69239 2.514 6.06119 2.64 5.47559 2.868C4.98553 3.04793 4.54248 3.33631 4.17959 3.7116C3.804 4.07448 3.51521 4.5175 3.33479 5.0076C3.10679 5.5956 2.98079 6.2256 2.93759 7.1652C2.87519 8.49 2.86799 8.9532 2.86799 12C2.86799 14.9688 2.87639 15.4536 2.93759 16.8348C2.98199 17.7744 3.10799 18.4068 3.33479 18.9912C3.53879 19.5132 3.77879 19.8888 4.17719 20.2872C4.58159 20.6904 4.95719 20.9316 5.47319 21.1308C6.06599 21.36 6.69719 21.4872 7.63319 21.5304C8.95799 21.5928 9.42119 21.6 12.468 21.6C15.4368 21.6 15.9216 21.5916 17.3028 21.5304C18.2412 21.486 18.8736 21.36 19.4592 21.1332C19.9485 20.9524 20.3913 20.6646 20.7552 20.2908C21.1596 19.8864 21.4008 19.5108 21.6 18.9948C21.828 18.4032 21.9552 17.7708 21.9984 16.8348C22.0608 15.51 22.068 15.0468 22.068 12C22.068 9.0312 22.0596 8.5464 21.9984 7.1652C21.954 6.2268 21.828 5.5932 21.6 5.0076C21.4191 4.518 21.1309 4.07515 20.7564 3.7116C20.3937 3.33582 19.9506 3.047 19.4604 2.8668C18.8724 2.6388 18.2412 2.5128 17.3028 2.4696C15.978 2.4072 15.5148 2.4 12.468 2.4ZM12.468 0C15.7284 0 16.1352 0.0119999 17.4144 0.0719999C18.6924 0.132 19.5624 0.3324 20.328 0.63C21.12 0.9348 21.7872 1.3476 22.4544 2.0136C23.0646 2.61348 23.5367 3.33911 23.838 4.14C24.1344 4.9044 24.336 5.7756 24.396 7.0536C24.4524 8.3328 24.468 8.7396 24.468 12C24.468 15.2604 24.456 15.6672 24.396 16.9464C24.336 18.2244 24.1344 19.0944 23.838 19.86C23.5376 20.6613 23.0653 21.3871 22.4544 21.9864C21.8543 22.5964 21.1288 23.0685 20.328 23.37C19.5636 23.6664 18.6924 23.868 17.4144 23.928C16.1352 23.9844 15.7284 24 12.468 24C9.20759 24 8.80079 23.988 7.52159 23.928C6.24359 23.868 5.37359 23.6664 4.60799 23.37C3.80678 23.0694 3.08102 22.5971 2.48159 21.9864C1.87127 21.3866 1.3991 20.661 1.09799 19.86C0.800387 19.0956 0.599987 18.2244 0.539987 16.9464C0.483587 15.6672 0.467987 15.2604 0.467987 12C0.467987 8.7396 0.479987 8.3328 0.539987 7.0536C0.599987 5.7744 0.800387 4.9056 1.09799 4.14C1.39827 3.33862 1.87055 2.61279 2.48159 2.0136C3.08119 1.40308 3.8069 0.930875 4.60799 0.63C5.37359 0.3324 6.24239 0.132 7.52159 0.0719999C8.80079 0.0155999 9.20759 0 12.468 0Z" fill="white"/>
</svg>
