<svg width="26" height="24" viewBox="0 0 26 24" fill="none" xmlns="http://www.w3.org/2000/svg">
<path d="M5.47098 2.66785C5.47062 3.37506 5.18935 4.05316 4.68903 4.55298C4.18871 5.05279 3.51033 5.33339 2.80313 5.33304C2.09592 5.33268 1.41782 5.05141 0.918002 4.55109C0.418183 4.05077 0.137586 3.37239 0.13794 2.66519C0.138293 1.95798 0.419568 1.27988 0.919888 0.780063C1.42021 0.280243 2.09859 -0.000353269 2.80579 3.33797e-07C3.513 0.000353936 4.1911 0.281629 4.69091 0.781948C5.19073 1.28227 5.47133 1.96065 5.47098 2.66785ZM5.55097 7.30759H0.217935V24H5.55097V7.30759ZM13.9772 7.30759H8.6708V24H13.9238V15.2405C13.9238 10.3608 20.2835 9.90745 20.2835 15.2405V24H25.5499V13.4273C25.5499 5.20104 16.1371 5.50769 13.9238 9.54747L13.9772 7.30759Z" fill="white"/>
</svg>
