<svg width="20" height="24" viewBox="0 0 20 24" fill="none" xmlns="http://www.w3.org/2000/svg">
<path d="M8.1433 15.8726C7.51211 19.1773 6.74293 22.3452 4.46178 24C3.75859 19.0057 5.49496 15.2558 6.30254 11.2743C4.92617 8.95832 6.46814 4.30002 9.36847 5.4484C12.9384 6.85957 6.27734 14.0546 10.7484 14.9546C15.4175 15.8918 17.3231 6.85477 14.4276 3.91603C10.2457 -0.32948 2.25263 3.81643 3.2366 9.8943C3.4754 11.3799 5.01017 11.8299 3.84979 13.8806C1.17265 13.2878 0.373466 11.1759 0.476664 8.36073C0.64226 3.75283 4.61538 0.528502 8.60169 0.0809118C13.6428 -0.484276 18.3743 1.93247 19.0283 6.67357C19.7639 12.0267 16.7531 17.8249 11.3616 17.4073C9.90006 17.2933 9.28808 16.5686 8.1433 15.8726Z" fill="white"/>
</svg>
