<svg width="25" height="20" viewBox="0 0 25 20" fill="none" xmlns="http://www.w3.org/2000/svg">
<path d="M24.4668 2.55963C23.5679 2.95723 22.6147 3.21835 21.6387 3.33435C22.6675 2.71909 23.4374 1.75077 23.8051 0.609863C22.8397 1.18443 21.7812 1.5871 20.678 1.80492C19.9369 1.01204 18.9547 0.486194 17.8839 0.309139C16.8132 0.132084 15.714 0.313738 14.7572 0.82586C13.8003 1.33798 13.0395 2.15188 12.5929 3.14102C12.1464 4.13016 12.0391 5.23912 12.2878 6.2955C10.33 6.19737 8.41461 5.68858 6.66613 4.80217C4.91764 3.91576 3.37512 2.67154 2.13871 1.15029C1.70106 1.902 1.47107 2.75652 1.4723 3.62635C1.4723 5.33357 2.34122 6.84181 3.66226 7.72486C2.88048 7.70024 2.11591 7.48912 1.43227 7.10908V7.1703C1.43251 8.30731 1.82596 9.40925 2.54591 10.2893C3.26586 11.1693 4.268 11.7733 5.38243 11.9988C4.6567 12.1955 3.89574 12.2245 3.15716 12.0836C3.47136 13.0623 4.08377 13.9182 4.90864 14.5315C5.7335 15.1448 6.72952 15.4848 7.75723 15.5039C6.73582 16.3061 5.56631 16.8991 4.31557 17.249C3.06483 17.5989 1.75738 17.6989 0.467987 17.5431C2.71881 18.9907 5.33898 19.7591 8.01508 19.7566C17.0728 19.7566 22.0261 12.2531 22.0261 5.74566C22.0261 5.53373 22.0202 5.31944 22.0108 5.10986C22.9749 4.41304 23.807 3.54984 24.468 2.56081L24.4668 2.55963Z" fill="white"/>
</svg>
